HIERARCHY
ROOT Hips
{
  OFFSET 39.9352 98.8163 4.02091
  CHANNELS 6 Xposition Yposition Zposition Zrotation Xrotation Yrotation
  JOINT spine
  {
    OFFSET 0 8.30103 0.477351
    CHANNELS 3 Zrotation Xrotation Yrotation
    JOINT spine1
    {
      OFFSET 0 10.4565 0
      CHANNELS 3 Zrotation Xrotation Yrotation
      JOINT spine2
      {
        OFFSET 0 10.0192 0
        CHANNELS 3 Zrotation Xrotation Yrotation
        JOINT Neck
        {
          OFFSET 0 25.7235 1.22641
          CHANNELS 3 Zrotation Xrotation Yrotation
          JOINT Head
          {
            OFFSET 0 7.77175 0
            CHANNELS 3 Zrotation Xrotation Yrotation
            End Site
            {
              OFFSET 0 18.812 -6.20394
            }
          }
        }
        JOINT RightShoulder
        {
          OFFSET -4.2188 10.82 -0.587439
          CHANNELS 3 Zrotation Xrotation Yrotation
          JOINT RightArm
          {
            OFFSET 0 14.1914 0
            CHANNELS 3 Zrotation Xrotation Yrotation
            JOINT RightArmRoll
            {
              OFFSET 0 7.16408 0
              CHANNELS 3 Zrotation Xrotation Yrotation
              JOINT RightForeArm
              {
                OFFSET 0 20.8665 0
                CHANNELS 3 Zrotation Xrotation Yrotation
                JOINT RightForeArmRoll
                {
                  OFFSET 0 8.03921 0
                  CHANNELS 3 Zrotation Xrotation Yrotation
                  JOINT RightHand
                  {
                    OFFSET 0 16.133 0
                    CHANNELS 3 Zrotation Xrotation Yrotation
                    End Site
                    {
                      OFFSET 0 0 0
                    }
                  }
                }
              }
            }
          }
        }
        JOINT LeftShoulder
        {
          OFFSET 4.2188 10.82 -0.587439
          CHANNELS 3 Zrotation Xrotation Yrotation
          JOINT LeftArm
          {
            OFFSET 0 14.1914 0
            CHANNELS 3 Zrotation Xrotation Yrotation
            JOINT LeftArmRoll
            {
              OFFSET 0 7.16408 0
              CHANNELS 3 Zrotation Xrotation Yrotation
              JOINT LeftForeArm
              {
                OFFSET 0 20.8665 0
                CHANNELS 3 Zrotation Xrotation Yrotation
                JOINT LeftForeArmRoll
                {
                  OFFSET 0 8.03921 0
                  CHANNELS 3 Zrotation Xrotation Yrotation
                  JOINT LeftHand
                  {
                    OFFSET 0 16.133 0
                    CHANNELS 3 Zrotation Xrotation Yrotation
                    End Site
                    {
                      OFFSET 0 0 0
                    }
                  }
                }
              }
            }
          }
        }
      }
    }
  }
  JOINT RightUpLeg
  {
    OFFSET -7.35773 -1.34921 -1.13181
    CHANNELS 3 Zrotation Xrotation Yrotation
    JOINT RightUpLegRoll
    {
      OFFSET 0 18.9168 0
      CHANNELS 3 Zrotation Xrotation Yrotation
      JOINT RightLeg
      {
        OFFSET 0 -23.4256 0
        CHANNELS 3 Zrotation Xrotation Yrotation
        JOINT RightLegRoll
        {
          OFFSET 0 23.5023 0
          CHANNELS 3 Zrotation Xrotation Yrotation
          JOINT RightFoot
          {
            OFFSET 0 19.5617 0
            CHANNELS 3 Zrotation Xrotation Yrotation
            JOINT RightToeBase
            {
              OFFSET 0 16.3526 0
              CHANNELS 3 Zrotation Xrotation Yrotation
              End Site
              {
                OFFSET 0.00693124 7.91943 -0.912837
              }
            }
          }
        }
      }
    }
  }
  JOINT LeftUpLeg
  {
    OFFSET 7.35773 -1.34921 -1.13181
    CHANNELS 3 Zrotation Xrotation Yrotation
    JOINT LeftUpLegRoll
    {
      OFFSET 0 18.9169 0
      CHANNELS 3 Zrotation Xrotation Yrotation
      JOINT LeftLeg
      {
        OFFSET 0 23.4255 0
        CHANNELS 3 Zrotation Xrotation Yrotation
        JOINT LeftLegRoll
        {
          OFFSET 0 23.7195 0
          CHANNELS 3 Zrotation Xrotation Yrotation
          JOINT LeftFoot
          {
            OFFSET 0 19.3444 0
            CHANNELS 3 Zrotation Xrotation Yrotation
            JOINT LeftToeBase
            {
              OFFSET 0 16.3526 0
              CHANNELS 3 Zrotation Xrotation Yrotation
              End Site
              {
                OFFSET -0.0310629 7.91944 -0.912836
              }
            }
          }
        }
      }
    }
  }
}
MOTION
Frames: 12
Frame Time: 0.00208333
39.7238 98.836 5.05597 1.50046 -3.04725 1.65839 -0.0153406 -2.38027 0.122352 -0.0269662 -0.758503 0.245858 -0.0298487 0.886563 0.246304 -4.31356 45.4948 0.533388 3.29178 -27.3206 -0.631682 26.9051 -11.6441 -7.90312 -10.7406 52.8715 103.472 1.4184e-006 -2.99976e-006 -4.57489e-006 -37.2807 73.9593 43.0585 -7.04805e-006 2.31193e-006 -3.00401 8.02919 -4.95143 0.697676 -34.8157 -9.58348 5.69616 5.0386 51.1811 -101.483 -1.49435e-006 1.32911e-006 -1.24508e-006 11.8589 62.816 -12.7707 5.87123e-006 -1.87649e-006 3.00627 -8.0289 -4.95145 -0.697695 174.772 -1.90892 2.01012 180 7.01541e-015 178.899 175.828 5.68429 179.765 -5.24389e-007 -7.81706e-006 0.055001 -18.4785 67.8089 19.3729 8.13649 25.2327 -3.48774 -176.39 -2.25394 1.1052 4.54188e-006 -4.6773e-006 -1.17005 -3.46892 -8.07812 0.400366 3.41862e-006 4.08782e-006 -0.0976963 18.0963 67.1381 -18.8453 -8.13649 25.2327 3.48774 
39.7221 98.8306 5.05636 1.50047 -3.05547 1.65273 -0.0162999 -2.37921 0.122638 -0.0289537 -0.757432 0.247445 -0.0318578 0.887634 0.24792 -4.18787 45.5428 0.472697 3.1978 -27.3714 -0.656418 26.9275 -11.6354 -7.89282 -11.0664 52.9788 103.771 1.4184e-006 -2.99976e-006 -4.57489e-006 -37.5105 74.0521 43.3054 -7.04805e-006 2.31193e-006 -3.00401 8.02919 -4.95143 0.697676 -34.8193 -9.53924 5.65319 5.16152 51.2129 -101.577 -1.49435e-006 1.32911e-006 -1.24508e-006 11.8514 63.0344 -12.806 5.87123e-006 -1.87649e-006 3.00626 -8.0289 -4.95145 -0.697695 174.772 -1.90471 2.01236 180 7.01541e-015 178.898 175.827 5.70244 179.766 -5.24389e-007 -7.81706e-006 0.0550322 -18.4816 67.8126 19.3763 8.13649 25.2327 -3.48774 -176.389 -2.26137 1.10005 4.54188e-006 -4.6773e-006 -1.17035 -3.47252 -8.07896 0.400068 3.41862e-006 4.08782e-006 -0.0976606 18.0907 67.1311 -18.8396 -8.13649 25.2327 3.48774 
39.7146 98.8301 5.06397 1.5004 -3.06354 1.64773 -0.0174851 -2.3782 0.122894 -0.0313615 -0.756665 0.249177 -0.0342902 0.888401 0.249686 -4.04883 45.6022 0.402746 3.0924 -27.4356 -0.686955 26.9538 -11.6261 -7.88169 -11.3799 53.0916 104.049 1.4184e-006 -2.99976e-006 -4.57489e-006 -37.6923 74.1267 43.4969 -7.04805e-006 2.31193e-006 -3.00401 8.02919 -4.95143 0.697676 -34.8223 -9.49346 5.60871 5.2761 51.2414 -101.658 -1.49435e-006 1.32911e-006 -1.24508e-006 11.8419 63.2508 -12.8375 5.87123e-006 -1.87649e-006 3.00626 -8.0289 -4.95145 -0.697695 174.771 -1.90157 2.014 180 7.01541e-015 178.898 175.827 5.71832 179.766 -5.24389e-007 -7.81706e-006 0.0550639 -18.4841 67.8156 19.3791 8.13649 25.2327 -3.48774 -176.388 -2.26684 1.09577 4.54188e-006 -4.6773e-006 -1.17064 -3.47495 -8.08236 0.399897 3.41862e-006 4.08782e-006 -0.0976341 18.0866 67.1259 -18.8355 -8.13649 25.2327 3.48774 
39.7186 98.8286 5.06007 1.50022 -3.07144 1.64332 -0.0188634 -2.37721 0.123116 -0.0341277 -0.756146 0.25101 -0.0370833 0.88892 0.251559 -3.8986 45.671 0.324991 2.97768 -27.511 -0.7223 26.9835 -11.6161 -7.8698 -11.68 53.2087 104.306 1.4184e-006 -2.99976e-006 -4.57489e-006 -37.8302 74.185 43.6379 -7.04805e-006 2.31193e-006 -3.00401 8.02919 -4.95143 0.697676 -34.8251 -9.44651 5.56311 5.38225 51.2669 -101.726 -1.49435e-006 1.32911e-006 -1.24508e-006 11.8306 63.465 -12.8655 5.87123e-006 -1.87649e-006 3.00626 -8.0289 -4.95145 -0.697695 174.772 -1.89939 2.0151 180 7.01541e-015 178.898 175.826 5.73213 179.766 -5.24389e-007 -7.81706e-006 0.0550963 -18.4862 67.8181 19.3813 8.13649 25.2327 -3.48774 -176.387 -2.27052 1.09224 4.54188e-006 -4.6773e-006 -1.17093 -3.47636 -8.08807 0.399838 3.41862e-006 4.08782e-006 -0.0976159 18.0837 67.1223 -18.8325 -8.13649 25.2327 3.48774 
39.7204 98.8286 5.06001 1.49991 -3.07916 1.63941 -0.020402 -2.37625 0.123305 -0.0371904 -0.755816 0.252905 -0.0401745 0.88925 0.253498 -3.73936 45.7473 0.240896 2.85575 -27.5955 -0.761458 27.0164 -11.6056 -7.8572 -11.9657 53.3291 104.543 1.4184e-006 -2.99976e-006 -4.57489e-006 -37.9285 74.2293 43.7337 -7.04805e-006 2.31193e-006 -3.00401 8.02919 -4.95143 0.697676 -34.8281 -9.39879 5.51678 5.47989 51.2896 -101.782 -1.49435e-006 1.32911e-006 -1.24508e-006 11.8175 63.6765 -12.8902 5.87123e-006 -1.87649e-006 3.00626 -8.0289 -4.95145 -0.697695 174.773 -1.89806 2.01569 180 7.01541e-015 178.898 175.826 5.74406 179.766 -5.24389e-007 -7.81706e-006 0.0551293 -18.4878 67.8199 19.3831 8.13649 25.2327 -3.48774 -176.386 -2.27259 1.08933 4.54188e-006 -4.6773e-006 -1.17122 -3.47689 -8.09583 0.399875 3.41862e-006 4.08782e-006 -0.0976054 18.0819 67.1201 -18.8308 -8.13649 25.2327 3.48774 
39.7186 98.8344 5.0594 1.49946 -3.0867 1.63594 -0.022068 -2.37531 0.123459 -0.0404877 -0.755618 0.25482 -0.0435012 0.889448 0.25546 -3.57332 45.8289 0.151936 2.72872 -27.6867 -0.803433 27.0521 -11.5946 -7.84396 -12.2362 53.4518 104.761 1.4184e-006 -2.99976e-006 -4.57489e-006 -37.9922 74.2613 43.7901 -7.04805e-006 2.31193e-006 -3.00401 8.02919 -4.95143 0.697676 -34.8315 -9.3507 5.47013 5.569 51.3096 -101.826 -1.49435e-006 1.32911e-006 -1.24508e-006 11.8031 63.8851 -12.912 5.87123e-006 -1.87649e-006 3.00625 -8.0289 -4.95145 -0.697695 174.774 -1.89747 2.01582 180 7.01541e-015 178.898 175.827 5.75432 179.766 -5.24389e-007 -7.81706e-006 0.0551628 -18.489 67.8213 19.3844 8.13649 25.2327 -3.48774 -176.384 -2.27324 1.08691 4.54188e-006 -4.6773e-006 -1.17151 -3.47668 -8.10539 0.399995 3.41862e-006 4.08782e-006 -0.0976017 18.0811 67.1191 -18.83 -8.13649 25.2327 3.48774 
39.7163 98.8303 5.05214 1.49885 -3.09406 1.63282 -0.0238286 -2.37439 0.123576 -0.0439576 -0.755493 0.256713 -0.0470008 0.889573 0.257404 -3.40272 45.9141 0.0596081 2.59871 -27.7824 -0.847221 27.0902 -11.583 -7.83014 -12.4904 53.5754 104.96 1.4184e-006 -2.99976e-006 -4.57489e-006 -38.0264 74.2831 43.8131 -7.04805e-006 2.31193e-006 -3.00401 8.02919 -4.95143 0.697676 -34.8359 -9.30261 5.42353 5.64951 51.3274 -101.859 -1.49435e-006 1.32911e-006 -1.24508e-006 11.7874 64.0903 -12.9312 5.87123e-006 -1.87649e-006 3.00625 -8.0289 -4.95145 -0.697695 174.776 -1.89752 2.01554 180 7.01541e-015 178.898 175.827 5.76304 179.766 -5.24389e-007 -7.81706e-006 0.055197 -18.4898 67.8222 19.3853 8.13649 25.2327 -3.48774 -176.383 -2.27264 1.08485 4.54188e-006 -4.6773e-006 -1.1718 -3.47588 -8.1165 0.400183 3.41862e-006 4.08782e-006 -0.097604 18.0811 67.1192 -18.83 -8.13649 25.2327 3.48774 
39.718 98.8278 5.05277 1.49808 -3.10122 1.62998 -0.0256511 -2.37347 0.123655 -0.0475383 -0.755383 0.258544 -0.0506109 0.889682 0.259286 -3.22979 46.0007 -0.034573 2.46786 -27.8805 -0.891811 27.1303 -11.571 -7.81579 -12.7273 53.699 105.143 1.4184e-006 -2.99976e-006 -4.57489e-006 -38.0365 74.2965 43.8091 -7.04805e-006 2.31193e-006 -3.00401 8.02919 -4.95143 0.697676 -34.8414 -9.25492 5.37738 5.72137 51.3429 -101.882 -1.49435e-006 1.32911e-006 -1.24508e-006 11.7706 64.2919 -12.948 5.87123e-006 -1.87649e-006 3.00625 -8.0289 -4.95145 -0.697695 174.779 -1.8981 2.01489 180 7.01541e-015 178.898 175.827 5.77041 179.766 -5.24389e-007 -7.81706e-006 0.0552316 -18.4903 67.8227 19.3858 8.13649 25.2327 -3.48774 -176.381 -2.27097 1.08303 4.54188e-006 -4.6773e-006 -1.17208 -3.47464 -8.1289 0.400425 3.41862e-006 4.08782e-006 -0.0976114 18.0817 67.1201 -18.8307 -8.13649 25.2327 3.48774 
39.7132 98.8278 5.0502 1.49711 -3.10818 1.62735 -0.0275025 -2.37257 0.123694 -0.0511678 -0.755232 0.26027 -0.0542688 0.889833 0.261066 -3.05685 46.0867 -0.12907 2.33832 -27.9788 -0.936187 27.172 -11.5587 -7.80098 -12.9459 53.8214 105.308 1.4184e-006 -2.99976e-006 -4.57489e-006 -38.0278 74.3035 43.7842 -7.04805e-006 2.31193e-006 -3.00401 8.02919 -4.95143 0.697676 -34.8486 -9.20802 5.33207 5.78462 51.3566 -101.894 -1.49435e-006 1.32911e-006 -1.24508e-006 11.7531 64.4895 -12.9629 5.87123e-006 -1.87649e-006 3.00624 -8.0289 -4.95145 -0.697695 174.781 -1.8991 2.01392 180 7.01541e-015 178.898 175.828 5.77667 179.766 -5.24389e-007 -7.81706e-006 0.0552668 -18.4905 67.8228 19.386 8.13649 25.2327 -3.48774 -176.379 -2.26841 1.08129 4.54188e-006 -4.6773e-006 -1.17237 -3.47309 -8.14233 0.400704 3.41862e-006 4.08782e-006 -0.0976233 18.0829 67.1217 -18.832 -8.13649 25.2327 3.48774 
39.7143 98.8294 5.04915 1.49593 -3.11493 1.62484 -0.02935 -2.37166 0.123692 -0.0547844 -0.754981 0.26185 -0.0579121 0.890084 0.262699 -2.88619 46.1703 -0.222321 2.21226 -28.075 -0.979325 27.2151 -11.5459 -7.78576 -13.1451 53.9412 105.458 1.4184e-006 -2.99976e-006 -4.57489e-006 -38.006 74.306 43.7451 -7.04805e-006 2.31193e-006 -3.00401 8.02919 -4.95143 0.697676 -34.8578 -9.16231 5.28799 5.83915 51.3686 -101.897 -1.49435e-006 1.32911e-006 -1.24508e-006 11.735 64.6828 -12.9761 5.87123e-006 -1.87649e-006 3.00624 -8.0289 -4.95145 -0.697695 174.785 -1.90041 2.01266 180 7.01541e-015 178.898 175.829 5.78197 179.766 -5.24389e-007 -7.81706e-006 0.0553025 -18.4904 67.8226 19.3859 8.13649 25.2327 -3.48774 -176.376 -2.26515 1.07953 4.54188e-006 -4.6773e-006 -1.17266 -3.47139 -8.15654 0.401008 3.41862e-006 4.08782e-006 -0.0976387 18.0844 67.1238 -18.8336 -8.13649 25.2327 3.48774 
39.7104 98.8278 5.03314 1.49453 -3.12147 1.62239 -0.0311609 -2.37075 0.123648 -0.0583261 -0.754572 0.263244 -0.061478 0.890493 0.264146 -2.72018 46.2494 -0.312744 2.09187 -28.1669 -1.02019 27.2591 -11.5329 -7.77019 -13.324 54.0574 105.593 1.4184e-006 -2.99976e-006 -4.57489e-006 -37.9766 74.3058 43.6981 -7.04805e-006 2.31193e-006 -3.00401 8.02919 -4.95143 0.697676 -34.8693 -9.11817 5.24554 5.88497 51.379 -101.891 -1.49435e-006 1.32911e-006 -1.24508e-006 11.7166 64.8714 -12.9879 5.87123e-006 -1.87649e-006 3.00624 -8.0289 -4.95145 -0.697695 174.788 -1.90194 2.01118 180 7.01541e-015 178.897 175.829 5.78648 179.766 -5.24389e-007 -7.81706e-006 0.0553388 -18.49 67.8221 19.3856 8.13649 25.2327 -3.48774 -176.373 -2.26136 1.07761 4.54188e-006 -4.6773e-006 -1.17294 -3.46967 -8.17128 0.401321 3.41862e-006 4.08782e-006 -0.0976568 18.0861 67.1262 -18.8355 -8.13649 25.2327 3.48774 
39.7084 98.8275 5.03324 1.49289 -3.1278 1.61991 -0.0329023 -2.36984 0.123559 -0.061731 -0.753948 0.264409 -0.0649042 0.891118 0.265363 -2.5612 46.3221 -0.398734 1.97933 -28.2523 -1.05775 27.3036 -11.5196 -7.75433 -13.4814 54.1687 105.713 1.4184e-006 -2.99976e-006 -4.57489e-006 -37.945 74.3049 43.6496 -7.04805e-006 2.31193e-006 -3.00401 8.02919 -4.95143 0.697676 -34.8835 -9.076 5.20509 5.92204 51.3882 -101.877 -1.49435e-006 1.32911e-006 -1.24508e-006 11.6982 65.055 -12.9987 5.87123e-006 -1.87649e-006 3.00623 -8.0289 -4.95145 -0.697695 174.792 -1.90356 2.0095 180 7.01541e-015 178.897 175.83 5.7904 179.766 -5.24389e-007 -7.81706e-006 0.0553754 -18.4895 67.8214 19.385 8.13649 25.2327 -3.48774 -176.37 -2.25722 1.0754 4.54188e-006 -4.6773e-006 -1.17323 -3.46809 -8.18629 0.401629 3.41862e-006 4.08782e-006 -0.097677 18.0879 67.1286 -18.8375 -8.13649 25.2327 3.48774 
